HIERARCHY
ROOT hip
{
  OFFSET 0 0 0
  CHANNELS 6 Xposition Yposition Zposition Zrotation Yrotation Xrotation
  JOINT abdomen
  {
    OFFSET 0 20.6881 -0.73152
    CHANNELS 3 Zrotation Xrotation Yrotation
    JOINT chest
    {
      OFFSET 0 11.7043 -0.48768
      CHANNELS 3 Zrotation Xrotation Yrotation
      JOINT neck
      {
        OFFSET 0 22.1894 -2.19456
        CHANNELS 3 Zrotation Xrotation Yrotation
        JOINT head
        {
          OFFSET -0.24384 7.07133 1.2192
          CHANNELS 3 Zrotation Xrotation Yrotation
          JOINT leftEye
          {
            OFFSET 4.14528 8.04674 8.04672
            CHANNELS 3 Zrotation Xrotation Yrotation
            End Site
            {
              OFFSET 1 0 0
            }
          }
          JOINT rightEye
          {
            OFFSET -3.6576 8.04674 8.04672
            CHANNELS 3 Zrotation Xrotation Yrotation
            End Site
            {
              OFFSET 1 0 0
            }
          }
        }
      }
      JOINT rCollar
      {
        OFFSET -2.68224 19.2634 -4.8768
        CHANNELS 3 Zrotation Xrotation Yrotation
        JOINT rShldr
        {
          OFFSET -8.77824 -1.95073 1.46304
          CHANNELS 3 Zrotation Xrotation Yrotation
          JOINT rForeArm
          {
            OFFSET -28.1742 -1.7115 0.48768
            CHANNELS 3 Zrotation Xrotation Yrotation
            JOINT rHand
            {
              OFFSET -22.5879 0.773209 7.07136
              CHANNELS 3 Zrotation Xrotation Yrotation
              JOINT rThumb1
              {
                OFFSET -1.2192 -0.487915 3.41376
                CHANNELS 3 Zrotation Xrotation Yrotation
                JOINT rThumb2
                {
                  OFFSET -3.37035 -0.52449 3.41376
                  CHANNELS 3 Zrotation Xrotation Yrotation
                  End Site
                  {
                    OFFSET -1.78271 -1.18214 1.43049
                  }
                }
              }
              JOINT rIndex1
              {
                OFFSET -7.75947 0.938293 5.60832
                CHANNELS 3 Zrotation Xrotation Yrotation
                JOINT rIndex2
                {
                  OFFSET -2.54057 -0.884171 1.56538
                  CHANNELS 3 Zrotation Xrotation Yrotation
                  End Site
                  {
                    OFFSET -1.62519 -0.234802 1.16502
                  }
                }
              }
              JOINT rMid1
              {
                OFFSET -8.24714 1.18213 3.41376
                CHANNELS 3 Zrotation Xrotation Yrotation
                JOINT rMid2
                {
                  OFFSET -3.10165 -0.590103 1.0647
                  CHANNELS 3 Zrotation Xrotation Yrotation
                  End Site
                  {
                    OFFSET -2.48547 -0.328903 0.83742
                  }
                }
              }
              JOINT rRing1
              {
                OFFSET -8.82822 0.546677 1.51678
                CHANNELS 3 Zrotation Xrotation Yrotation
                JOINT rRing2
                {
                  OFFSET -2.60934 -0.819778 -0.0198488
                  CHANNELS 3 Zrotation Xrotation Yrotation
                  End Site
                  {
                    OFFSET -2.33842 -0.294052 0.168128
                  }
                }
              }
              JOINT rPinky1
              {
                OFFSET -8.27202 -0.0477905 -0.4584
                CHANNELS 3 Zrotation Xrotation Yrotation
                JOINT rPinky2
                {
                  OFFSET -1.82734 -0.647385 -0.700984
                  CHANNELS 3 Zrotation Xrotation Yrotation
                  End Site
                  {
                    OFFSET -1.69225 -0.51767 -0.607171
                  }
                }
              }
            }
          }
        }
      }
      JOINT lCollar
      {
        OFFSET 2.68224 19.2634 -4.8768
        CHANNELS 3 Zrotation Xrotation Yrotation
        JOINT lShldr
        {
          OFFSET 8.77824 -1.95073 1.46304
          CHANNELS 3 Zrotation Xrotation Yrotation
          JOINT lForeArm
          {
            OFFSET 28.1742 -1.7115 0.48768
            CHANNELS 3 Zrotation Xrotation Yrotation
            JOINT lHand
            {
              OFFSET 22.5879 0.773209 7.07136
              CHANNELS 3 Zrotation Xrotation Yrotation
              JOINT lThumb1
              {
                OFFSET 1.2192 -0.487915 3.41376
                CHANNELS 3 Zrotation Xrotation Yrotation
                JOINT lThumb2
                {
                  OFFSET 3.37035 -0.52449 3.41376
                  CHANNELS 3 Zrotation Xrotation Yrotation
                  End Site
                  {
                    OFFSET 1.78271 -1.18214 1.43049
                  }
                }
              }
              JOINT lIndex1
              {
                OFFSET 7.75947 0.938293 5.60832
                CHANNELS 3 Zrotation Xrotation Yrotation
                JOINT lIndex2
                {
                  OFFSET 2.54057 -0.884171 1.56538
                  CHANNELS 3 Zrotation Xrotation Yrotation
                  End Site
                  {
                    OFFSET 1.62519 -0.234802 1.16502
                  }
                }
              }
              JOINT lMid1
              {
                OFFSET 8.24714 1.18213 3.41376
                CHANNELS 3 Zrotation Xrotation Yrotation
                JOINT lMid2
                {
                  OFFSET 3.10165 -0.590103 1.0647
                  CHANNELS 3 Zrotation Xrotation Yrotation
                  End Site
                  {
                    OFFSET 2.48547 -0.328903 0.83742
                  }
                }
              }
              JOINT lRing1
              {
                OFFSET 8.82822 0.546677 1.51678
                CHANNELS 3 Zrotation Xrotation Yrotation
                JOINT lRing2
                {
                  OFFSET 2.60934 -0.819778 -0.0198488
                  CHANNELS 3 Zrotation Xrotation Yrotation
                  End Site
                  {
                    OFFSET 2.33842 -0.294052 0.168128
                  }
                }
              }
              JOINT lPinky1
              {
                OFFSET 8.27202 -0.0477905 -0.4584
                CHANNELS 3 Zrotation Xrotation Yrotation
                JOINT lPinky2
                {
                  OFFSET 1.82734 -0.647385 -0.700984
                  CHANNELS 3 Zrotation Xrotation Yrotation
                  End Site
                  {
                    OFFSET 1.69225 -0.51767 -0.607171
                  }
                }
              }
            }
          }
        }
      }
    }
  }
  JOINT rButtock
  {
    OFFSET -8.77824 4.35084 1.2192
    CHANNELS 3 Zrotation Xrotation Yrotation
    JOINT rThigh
    {
      OFFSET 0 -1.70687 -2.19456
      CHANNELS 3 Zrotation Xrotation Yrotation
      JOINT rShin
      {
        OFFSET 0 -36.8199 0.73152
        CHANNELS 3 Zrotation Xrotation Yrotation
        JOINT rFoot
        {
          OFFSET 0.73152 -45.1104 -5.12064
          CHANNELS 3 Zrotation Xrotation Yrotation
          End Site
          {
            OFFSET -1.1221 -3.69964 12.103
          }
        }
      }
    }
  }
  JOINT lButtock
  {
    OFFSET 8.77824 4.35084 1.2192
    CHANNELS 3 Zrotation Xrotation Yrotation
    JOINT lThigh
    {
      OFFSET 0 -1.70687 -2.19456
      CHANNELS 3 Zrotation Xrotation Yrotation
      JOINT lShin
      {
        OFFSET 0 -36.8199 0.73152
        CHANNELS 3 Zrotation Xrotation Yrotation
        JOINT lFoot
        {
          OFFSET -0.73152 -45.1104 -5.12064
          CHANNELS 3 Zrotation Xrotation Yrotation
          End Site
          {
            OFFSET 1.1221 -3.69964 12.103
          }
        }
      }
    }
  }
}
MOTION
Frames:	4
Frame Time:	0.00833333
125.7 74.64 -14.2109 171.625 -68.8635 -160.988 -2.95335 32.2553 -0.200842 -0.110449 -2.53736 -0.891652 6.50944 11.1149 15.1812 -22.4926 -34.8849 23.5284 -0.0 0.0 0.0 -0.0 0.0 0.0 4.13354e-13 3.46955e-13 -5.69423e-13 72.7536 23.3555 0.772556 -26.7274 -25.467 60.0295 -0.0337682 5.26332 0.74179 -2.74742e-09 -3.48643e-09 4.41835e-09 -4.73023e-09 -6.01185e-09 7.63711e-09 -2.74742e-09 -3.48643e-09 4.41834e-09 7.73091 5.47488 0.417314 -2.74742e-09 -3.48643e-09 4.41835e-09 2.90554 0.965183 0.102902 -2.74742e-09 -3.48643e-09 4.41835e-09 10.2786 0.731801 0.0259123 -2.74742e-09 -3.48643e-09 4.41835e-09 2.22167 -0.733487 -0.20892 4.13274e-13 3.4697e-13 -5.696e-13 -64.4757 0.93529 -28.4384 27.753 -41.5436 -86.7481 0.90445 25.9248 -3.91861 -1.65118e-09 3.85674e-10 3.40962e-09 -2.80484e-09 6.89716e-10 5.92359e-09 -1.65118e-09 3.85674e-10 3.40963e-09 -7.73091 5.47488 -0.417314 -1.65117e-09 3.85674e-10 3.40962e-09 -2.90554 0.965183 -0.102902 -1.65118e-09 3.85676e-10 3.40962e-09 -10.2786 0.731801 -0.0259123 -1.65117e-09 3.8568e-10 3.40961e-09 -2.22167 -0.733487 0.20892 -2.03217e-16 0.0 -3.88251e-19 -18.1396 -52.7349 -21.7268 -2.03206 69.6867 2.38341 1.18826 -2.63963 12.0071 2.03217e-16 0.0 3.88251e-19 3.22227 -42.5077 16.4724 0.810557 55.2267 -1.20671 -1.48641 -17.3537 -5.02379
125.628 74.3995 -14.3249 170.25 -68.4366 -159.847 -3.14576 32.3445 -0.0737945 -0.207626 -2.55845 -0.879395 6.58864 10.9857 15.1662 -22.1649 -34.7809 23.5999 -0.0 0.0 0.0 -0.0 0.0 0.0 3.43535e-13 -1.16895e-13 -3.62434e-13 73.2728 23.1498 0.601929 -26.7791 -25.6267 60.2846 -0.0385141 5.59256 0.788514 -3.30342e-09 -4.06851e-09 4.20995e-09 -5.69086e-09 -7.02433e-09 7.282e-09 -3.30342e-09 -4.06851e-09 4.20994e-09 7.73091 5.47488 0.417314 -3.30342e-09 -4.06851e-09 4.20995e-09 2.90554 0.965183 0.102902 -3.30342e-09 -4.06851e-09 4.20995e-09 10.2786 0.731801 0.0259123 -3.30343e-09 -4.06851e-09 4.20994e-09 2.22167 -0.733487 -0.20892 3.43487e-13 -1.16876e-13 -3.62633e-13 -64.1804 0.699114 -28.8292 27.7704 -41.4852 -86.6269 0.909815 26.0268 -3.93518 -9.10537e-10 3.03129e-10 2.52946e-09 -1.54033e-09 5.42813e-10 4.38849e-09 -9.10537e-10 3.03127e-10 2.52947e-09 -7.73091 5.47488 -0.417314 -9.10535e-10 3.03127e-10 2.52946e-09 -2.90554 0.965183 -0.102902 -9.10538e-10 3.03129e-10 2.52946e-09 -10.2786 0.731801 -0.0259123 -9.10524e-10 3.03134e-10 2.52944e-09 -2.22167 -0.733487 0.20892 -2.03217e-16 0.0 -3.88251e-19 -19.5168 -53.2906 -22.2384 -2.17563 70.6448 2.54043 1.28882 -1.62638 14.0664 2.03217e-16 0.0 3.88251e-19 3.27591 -42.4517 16.3804 0.820483 55.5026 -1.23114 -1.55641 -17.7276 -5.03395
125.616 74.2373 -14.5577 170.371 -68.0536 -160.112 -3.23827 32.3691 0.0526949 -0.234828 -2.56078 -0.856012 6.65904 10.9699 15.2119 -21.9972 -34.7756 23.7417 -0.0 0.0 0.0 -0.0 0.0 0.0 3.10297e-13 -2.23082e-13 -2.93667e-13 73.4309 23.145 0.47483 -26.8354 -25.8026 60.5618 -0.039782 5.67117 0.799686 -3.91495e-09 -5.1398e-09 4.7116e-09 -6.74513e-09 -8.87793e-09 8.15204e-09 -3.91495e-09 -5.13981e-09 4.71159e-09 7.73091 5.47488 0.417314 -3.91495e-09 -5.13981e-09 4.7116e-09 2.90554 0.965183 0.102902 -3.91494e-09 -5.1398e-09 4.7116e-09 10.2786 0.731801 0.0259123 -3.91495e-09 -5.1398e-09 4.7116e-09 2.22167 -0.733487 -0.20892 3.1027e-13 -2.23066e-13 -2.93849e-13 -63.8392 0.420299 -28.9617 27.7657 -41.5049 -86.6634 0.904389 25.9555 -3.92275 -9.10666e-10 2.35296e-10 2.36359e-09 -1.54488e-09 4.25818e-10 4.10331e-09 -9.10666e-10 2.35294e-10 2.3636e-09 -7.73091 5.47488 -0.417314 -9.10665e-10 2.35294e-10 2.36359e-09 -2.90554 0.965183 -0.102902 -9.10667e-10 2.35295e-10 2.36359e-09 -10.2786 0.731801 -0.0259123 -9.10653e-10 2.353e-10 2.36357e-09 -2.22167 -0.733487 0.20892 -2.03217e-16 0.0 -3.88251e-19 -20.0835 -53.8882 -21.8554 -2.27613 71.2846 2.6578 1.30562 -0.674414 15.8257 2.03217e-16 0.0 3.88251e-19 3.73514 -42.5725 16.6851 0.839975 56.005 -1.27227 -1.48215 -18.2006 -4.66353
125.667 74.02 -14.8491 171.884 -67.7071 -161.612 -3.25626 32.3581 0.182854 -0.226695 -2.55287 -0.824073 6.7352 11.0093 15.2931 -21.9306 -34.8245 23.9209 -0.0 0.0 0.0 -0.0 0.0 0.0 2.88956e-13 -1.3995e-13 -2.89328e-13 73.3951 23.2501 0.361238 -26.8963 -25.9969 60.8694 -0.039274 5.63523 0.794585 -4.65413e-09 -6.65302e-09 5.67207e-09 -8.01841e-09 -1.14934e-08 9.81457e-09 -4.65414e-09 -6.65302e-09 5.67206e-09 7.73091 5.47488 0.417314 -4.65414e-09 -6.65302e-09 5.67207e-09 2.90554 0.965183 0.102902 -4.65413e-09 -6.65301e-09 5.67206e-09 10.2786 0.731801 0.0259123 -4.65414e-09 -6.65301e-09 5.67206e-09 2.22167 -0.733487 -0.20892 2.88946e-13 -1.39939e-13 -2.89474e-13 -63.4933 0.127943 -29.0343 27.7565 -41.5429 -86.7341 0.899689 25.8934 -3.91195 -1.28093e-09 1.64054e-10 2.52131e-09 -2.18442e-09 3.05412e-10 4.38518e-09 -1.28093e-09 1.64053e-10 2.52132e-09 -7.73091 5.47488 -0.417314 -1.28093e-09 1.64053e-10 2.52131e-09 -2.90554 0.965183 -0.102902 -1.28093e-09 1.64053e-10 2.52131e-09 -10.2786 0.731801 -0.0259123 -1.28092e-09 1.64058e-10 2.5213e-09 -2.22167 -0.733487 0.20892 -2.03217e-16 0.0 -3.88251e-19 -20.0749 -54.5118 -20.8187 -2.34085 71.6974 2.74383 1.29618 0.139906 17.4215 2.03217e-16 0.0 3.88251e-19 4.50416 -42.8309 17.2932 0.869874 56.7021 -1.32777 -1.33093 -18.7635 -4.09874
